<svg width="25" height="25" viewBox="0 0 25 25" fill="none" xmlns="http://www.w3.org/2000/svg">
<path d="M12.1775 21C12.1179 21 12.0583 21 11.9983 20.9997C10.5873 21.0032 9.2836 20.9673 8.01572 20.8901C6.85333 20.8194 5.79228 20.4177 4.94713 19.7286C4.13163 19.0637 3.57474 18.1646 3.29197 17.0566C3.04587 16.092 3.03282 15.1451 3.02033 14.2292C3.01126 13.5721 3.00192 12.7935 3 12.0016C3.00192 11.2065 3.01126 10.4278 3.02033 9.77071C3.03282 8.85499 3.04587 7.90811 3.29197 6.94337C3.57474 5.83539 4.13163 4.9363 4.94713 4.27135C5.79228 3.58223 6.85333 3.18054 8.01586 3.10981C9.28373 3.03277 10.5877 2.99679 12.0017 3.00022C13.4131 2.9972 14.7164 3.03277 15.9843 3.10981C17.1467 3.18054 18.2077 3.58223 19.0529 4.27135C19.8685 4.9363 20.4253 5.83539 20.708 6.94337C20.9541 7.90797 20.9672 8.85499 20.9797 9.77071C20.9887 10.4278 20.9982 11.2065 21 11.9983V12.0016C20.9982 12.7935 20.9887 13.5721 20.9797 14.2292C20.9672 15.145 20.9543 16.0918 20.708 17.0566C20.4253 18.1646 19.8685 19.0637 19.0529 19.7286C18.2077 20.4177 17.1467 20.8194 15.9843 20.8901C14.7701 20.964 13.5228 21 12.1775 21ZM11.9983 19.5935C13.3863 19.5968 14.6608 19.5617 15.8989 19.4865C16.7778 19.4331 17.5399 19.1478 18.1642 18.6388C18.7413 18.1681 19.1387 17.5188 19.3454 16.7089C19.5503 15.9059 19.5621 15.0437 19.5735 14.21C19.5824 13.5573 19.5918 12.7841 19.5937 12C19.5918 11.2157 19.5824 10.4427 19.5735 9.78993C19.5621 8.9562 19.5503 8.09405 19.3454 7.29095C19.1387 6.48098 18.7413 5.83168 18.1642 5.36106C17.5399 4.85211 16.7778 4.56688 15.8989 4.51346C14.6608 4.43806 13.3863 4.40332 12.0016 4.40634C10.6138 4.40304 9.33922 4.43806 8.10115 4.51346C7.22221 4.56688 6.46014 4.85211 5.83582 5.36106C5.25874 5.83168 4.86129 6.48098 4.6546 7.29095C4.4497 8.09405 4.43789 8.95607 4.42649 9.78993C4.41756 10.4432 4.40823 11.2168 4.4063 12.0016C4.40823 12.783 4.41756 13.5567 4.42649 14.21C4.43789 15.0437 4.4497 15.9059 4.6546 16.7089C4.86129 17.5188 5.25874 18.1681 5.83582 18.6388C6.46014 19.1477 7.22221 19.4329 8.10115 19.4864C9.33922 19.5617 10.6141 19.5969 11.9983 19.5935ZM11.9648 16.3945C9.54165 16.3945 7.57007 14.4232 7.57007 12C7.57007 9.5768 9.54165 7.60543 11.9648 7.60543C14.388 7.60543 16.3595 9.5768 16.3595 12C16.3595 14.4232 14.388 16.3945 11.9648 16.3945ZM11.9648 9.01168C10.317 9.01168 8.97638 10.3523 8.97638 12C8.97638 13.6477 10.317 14.9883 11.9648 14.9883C13.6126 14.9883 14.9532 13.6477 14.9532 12C14.9532 10.3523 13.6126 9.01168 11.9648 9.01168ZM16.8517 6.19918C16.2692 6.19918 15.797 6.67132 15.797 7.25387C15.797 7.83642 16.2692 8.30856 16.8517 8.30856C17.4343 8.30856 17.9064 7.83642 17.9064 7.25387C17.9064 6.67132 17.4343 6.19918 16.8517 6.19918Z" fill="#F8F8F8"/>
</svg>
